<?xml version="1.0" encoding="utf-8"?>
<!-- Generator: Adobe Illustrator 22.1.0, SVG Export Plug-In . SVG Version: 6.00 Build 0)  -->
<svg version="1.1" id="레이어_1" xmlns="http://www.w3.org/2000/svg" xmlns:xlink="http://www.w3.org/1999/xlink" x="0px"
	 y="0px" viewBox="0 0 40 40" style="enable-background:new 0 0 40 40;" xml:space="preserve">
<style type="text/css">
	.st0{fill:#FFC7E3;}
	.st1{fill:#53C1C5;}
	.st2{fill:none;stroke:#00C1C7;stroke-width:2;stroke-linejoin:round;stroke-miterlimit:10;}
	.st3{fill:#00C1C7;}
	.st4{fill:none;stroke:#00C1C7;stroke-width:2;stroke-miterlimit:10;}
</style>
<ellipse transform="matrix(0.7071 -0.7071 0.7071 0.7071 2.3556 67.6519)" class="st0" cx="82.8" cy="31" rx="8.5" ry="8.5"/>
<g>
	<g>
		<path class="st1" d="M34.4,38.2H5.5V9.9h28.8V38.2z M7.3,36.4h25.3V11.7H7.3V36.4z"/>
	</g>
	<g>
		<path class="st1" d="M26.5,11.7H13.4V1.4h13.1V11.7z M15.2,9.9h9.6V3.1h-9.6V9.9z"/>
	</g>
	<g>
		<path class="st1" d="M24.4,16.9h-8.8v-7h8.8V16.9z M17.4,15.1h5.3v-3.4h-5.3V15.1z"/>
	</g>
	<g>
		<path class="st1" d="M25.7,24c-1,0-2.1-0.1-3.2-0.2l-5.3-1.1c-1.7-0.3-3.3-0.5-5-0.4c-1.9,0-3.8,0.3-5.7,0.8l-0.4-1.7
			c2-0.5,4-0.8,6.1-0.8c1.8,0,3.4,0.1,5.3,0.4l5.2,1.1c1.2,0.2,2.4,0.3,3.7,0.2c2.2-0.1,4.5-0.6,6.7-1.4l0.6,1.7
			c-2.4,0.9-4.9,1.4-7.3,1.5C26.2,24,25.9,24,25.7,24z"/>
	</g>
	<g>
		<path class="st1" d="M14.7,34.5l-1.3-1.2c0.2-0.2,0.4-0.5,0.7-0.7c2.4-2.5,5.1-5.3,5.1-10.1V16h1.8v6.5c0,5.5-3.2,8.9-5.6,11.3
			C15.1,34.1,14.9,34.3,14.7,34.5z"/>
	</g>
</g>
<g>
	<path class="st1" d="M-43.9,7.9c-0.2,0-0.4-0.2-0.4-0.4V4c0-1,0.8-1.8,1.8-1.8h2.3c1,0,1.8,0.8,1.8,1.8v3.4c0,0.2-0.2,0.4-0.4,0.4
		c-0.2,0-0.4-0.2-0.4-0.4V4c0-0.6-0.5-1-1-1h-2.3c-0.6,0-1,0.5-1,1v3.5C-43.5,7.7-43.7,7.9-43.9,7.9z"/>
	<path class="st1" d="M-45.3,13.2c-0.2,0-0.4-0.2-0.4-0.4V8.9c0-1,0.8-1.8,1.8-1.8h5c1,0,1.8,0.8,1.8,1.8v3.9c0,0.2-0.2,0.4-0.4,0.4
		c-0.2,0-0.4-0.2-0.4-0.4V8.9c0-0.6-0.5-1-1-1h-5c-0.6,0-1,0.5-1,1v3.9C-44.9,13-45.1,13.2-45.3,13.2z"/>
	<path class="st1" d="M-45.4,27.7c-1,0-2-0.2-3.2-0.8c-2.4-1.3-3.6-0.1-3.7-0.1c-0.2,0.1-0.4,0.1-0.6,0c-0.1-0.2-0.1-0.4,0-0.6
		c0.1-0.1,1.7-1.6,4.6-0.1c2.9,1.6,5.5,0.1,5.7,0c0.1-0.1,1.1-0.7,2.6-0.6c0.5,0,1.1,0.2,1.9,0.6c3.2,1.5,4.7,0.1,4.7,0.1
		c0,0,1.1-1,3-0.6c0.2,0,0.4,0.3,0.3,0.5c0,0.2-0.3,0.4-0.5,0.3c-1.5-0.3-2.3,0.4-2.3,0.4c-0.1,0-0.9,0.8-2.6,0.8
		c-0.8,0-1.8-0.2-3.1-0.7c-0.7-0.3-1.2-0.5-1.6-0.5c-1.3-0.1-2.2,0.5-2.2,0.5c0,0,0,0,0,0C-42.2,27-43.5,27.7-45.4,27.7z"/>
	<path class="st1" d="M-41.4,37.9c-7.2,0-13-5.8-13-13s5.8-13,13-13s13,5.8,13,13S-34.2,37.9-41.4,37.9z M-41.4,12.6
		c-6.8,0-12.2,5.5-12.2,12.2c0,6.8,5.5,12.2,12.2,12.2s12.2-5.5,12.2-12.2C-29.1,18.1-34.6,12.6-41.4,12.6z"/>
	<path class="st1" d="M-50.8,20.1c-0.1,0-0.1,0-0.2,0c-0.2-0.1-0.3-0.3-0.2-0.5c1.4-2.6,3.9-4.6,6.7-5.4c0.2-0.1,0.4,0.1,0.5,0.3
		c0.1,0.2-0.1,0.4-0.3,0.5c-2.6,0.7-4.9,2.5-6.2,5C-50.5,20-50.7,20.1-50.8,20.1z"/>
	<path class="st1" d="M-52.1,24.3C-52.1,24.3-52.1,24.3-52.1,24.3c-0.2,0-0.4-0.2-0.4-0.4c0.1-0.7,0.2-1.5,0.4-2.2
		c0.1-0.2,0.3-0.3,0.5-0.3c0.2,0.1,0.3,0.3,0.3,0.5c-0.2,0.7-0.3,1.4-0.4,2.1C-51.7,24.1-51.9,24.3-52.1,24.3z"/>
	<g>
		<g>
			<path class="st1" d="M-46.6,5.9h-0.4c-0.2,0-0.4-0.2-0.4-0.4c0-0.2,0.2-0.4,0.4-0.4h0.4c0.2,0,0.4,0.2,0.4,0.4
				C-46.2,5.7-46.4,5.9-46.6,5.9z"/>
			<path class="st1" d="M-48.4,5.9h-3.3c-0.2,0-0.4-0.2-0.4-0.4c0-0.2,0.2-0.4,0.4-0.4h3.3c0.2,0,0.4,0.2,0.4,0.4
				C-48,5.7-48.2,5.9-48.4,5.9z"/>
			<path class="st1" d="M-52.7,5.9h-0.4c-0.2,0-0.4-0.2-0.4-0.4c0-0.2,0.2-0.4,0.4-0.4h0.4c0.2,0,0.4,0.2,0.4,0.4
				C-52.3,5.7-52.5,5.9-52.7,5.9z"/>
		</g>
	</g>
	<g>
		<g>
			<path class="st1" d="M-46.9,7.4c-0.2,0-0.3-0.1-0.4-0.3c0-0.2,0.1-0.4,0.3-0.5l0.3-0.1c0.2,0,0.4,0.1,0.5,0.3
				c0,0.2-0.1,0.4-0.3,0.5L-46.9,7.4C-46.9,7.4-46.9,7.4-46.9,7.4z"/>
			<path class="st1" d="M-51.7,8.4c-0.2,0-0.3-0.1-0.4-0.3c0-0.2,0.1-0.4,0.3-0.5l3.3-0.7c0.2,0,0.4,0.1,0.5,0.3
				c0,0.2-0.1,0.4-0.3,0.5L-51.7,8.4C-51.6,8.4-51.7,8.4-51.7,8.4z"/>
			<path class="st1" d="M-53.1,8.7c-0.2,0-0.3-0.1-0.4-0.3c0-0.2,0.1-0.4,0.3-0.5l0.3-0.1c0.2,0,0.4,0.1,0.5,0.3
				c0,0.2-0.1,0.4-0.3,0.5L-53.1,8.7C-53,8.7-53.1,8.7-53.1,8.7z"/>
		</g>
	</g>
	<g>
		<g>
			<path class="st1" d="M-46.6,4.5C-46.6,4.5-46.6,4.5-46.6,4.5L-47,4.4c-0.2,0-0.4-0.3-0.3-0.5c0-0.2,0.3-0.4,0.5-0.3l0.3,0.1
				c0.2,0,0.4,0.3,0.3,0.5C-46.2,4.4-46.4,4.5-46.6,4.5z"/>
			<path class="st1" d="M-48.4,4.1C-48.4,4.1-48.4,4.1-48.4,4.1l-3.4-0.7c-0.2,0-0.3-0.3-0.3-0.5c0-0.2,0.3-0.3,0.5-0.3l3.3,0.7
				c0.2,0,0.3,0.3,0.3,0.5C-48,4-48.2,4.1-48.4,4.1z"/>
			<path class="st1" d="M-52.8,3.2C-52.8,3.2-52.8,3.2-52.8,3.2l-0.4-0.1c-0.2,0-0.3-0.3-0.3-0.5c0-0.2,0.3-0.3,0.5-0.3l0.3,0.1
				c0.2,0,0.3,0.3,0.3,0.5C-52.4,3.1-52.6,3.2-52.8,3.2z"/>
		</g>
	</g>
	<path class="st1" d="M-23.9,25.6c-0.2,0-0.4-0.2-0.4-0.4V20c0-8-6.5-14.6-14.6-14.6c-0.2,0-0.4-0.2-0.4-0.4c0-0.2,0.2-0.4,0.4-0.4
		c8.5,0,15.3,6.9,15.3,15.3v5.2C-23.5,25.5-23.6,25.6-23.9,25.6z"/>
	<path class="st1" d="M-23.9,35.7c-1,0-2-0.6-2.7-1.6c-0.7-1-1-2.3-1-3.7s0.4-2.7,1-3.7c0.7-1.1,1.7-1.6,2.7-1.6s2,0.6,2.7,1.6
		c0.7,1,1,2.3,1,3.7s-0.4,2.7-1,3.7C-21.9,35.1-22.8,35.7-23.9,35.7z M-23.9,25.7c-1.6,0-2.9,2.1-2.9,4.6s1.3,4.6,2.9,4.6
		s2.9-2.1,2.9-4.6S-22.2,25.7-23.9,25.7z"/>
</g>
<ellipse transform="matrix(0.7071 -0.7071 0.7071 0.7071 -76.1195 -10.3598)" class="st0" cx="-50.6" cy="86.7" rx="9.5" ry="9.5"/>
<polygon class="st2" points="-61.3,60.9 -61.3,69.1 -66,69.1 -66,90.4 -50.4,90.4 -50.4,69.1 -55,69.1 -55,60.9 "/>
<rect x="-61.4" y="68.1" class="st3" width="7.1" height="2"/>
<rect x="-62" y="74.7" class="st4" width="7.6" height="8.9"/>
</svg>
